<?xml version="1.0" encoding="UTF-8" standalone="no"?>
<!DOCTYPE svg PUBLIC "-//W3C//DTD SVG 1.1//EN"
 "http://www.w3.org/Graphics/SVG/1.1/DTD/svg11.dtd">
<!-- Generated by graphviz version 2.40.1 (20161225.0304)
 -->
<!-- Title: dependencies Pages: 1 -->
<svg width="814pt" height="349pt"
 viewBox="0.00 0.00 814.00 349.00" xmlns="http://www.w3.org/2000/svg" xmlns:xlink="http://www.w3.org/1999/xlink">
<g id="graph0" class="graph" transform="scale(1 1) rotate(0) translate(4 345)">
<title>dependencies</title>
<polygon fill="#ffffff" stroke="transparent" points="-4,4 -4,-345 810,-345 810,4 -4,4"/>
<text text-anchor="start" x="382.0091" y="-42.4" font-family="sans-serif" font-weight="bold" font-size="14.00" fill="#000000">Legend</text>
<polygon fill="#ffffb3" stroke="transparent" points="169,-10 169,-30 189,-30 189,-10 169,-10"/>
<text text-anchor="start" x="192.629" y="-15.4" font-family="sans-serif" font-size="14.00" fill="#000000"> &#160;Declarations</text>
<polygon fill="#8dd3c7" stroke="transparent" points="282,-10 282,-30 302,-30 302,-10 282,-10"/>
<text text-anchor="start" x="305.7251" y="-15.4" font-family="sans-serif" font-size="14.00" fill="#000000"> &#160;Module</text>
<polygon fill="#80b1d3" stroke="transparent" points="368,-10 368,-30 388,-30 388,-10 368,-10"/>
<text text-anchor="start" x="391.7812" y="-15.4" font-family="sans-serif" font-size="14.00" fill="#000000"> &#160;Bootstrap</text>
<polygon fill="#fdb462" stroke="transparent" points="465,-10 465,-30 485,-30 485,-10 465,-10"/>
<text text-anchor="start" x="488.6732" y="-15.4" font-family="sans-serif" font-size="14.00" fill="#000000"> &#160;Providers</text>
<polygon fill="#fb8072" stroke="transparent" points="561,-10 561,-30 581,-30 581,-10 561,-10"/>
<text text-anchor="start" x="584.7258" y="-15.4" font-family="sans-serif" font-size="14.00" fill="#000000"> &#160;Exports</text>
<g id="clust1" class="cluster">
<title>cluster_AppModule</title>
<polygon fill="none" stroke="#000000" stroke-dasharray="1,5" points="8,-70 8,-333 798,-333 798,-70 8,-70"/>
</g>
<g id="clust2" class="cluster">
<title>cluster_AppModule_declarations</title>
<polygon fill="none" stroke="#000000" points="16,-143 16,-195 790,-195 790,-143 16,-143"/>
</g>
<g id="clust3" class="cluster">
<title>cluster_AppModule_AppComponent_providers</title>
<polygon fill="none" stroke="#000000" points="654,-78 654,-130 790,-130 790,-78 654,-78"/>
</g>
<g id="clust10" class="cluster">
<title>cluster_AppModule_bootstrap</title>
<polygon fill="none" stroke="#000000" points="357,-273 357,-325 481,-325 481,-273 357,-273"/>
</g>
<!-- AppComponent -->
<g id="node1" class="node">
<title>AppComponent</title>
<polygon fill="#ffffb3" stroke="#000000" points="781.9399,-187 676.0601,-187 676.0601,-151 781.9399,-151 781.9399,-187"/>
<text text-anchor="middle" x="729" y="-164.8" font-family="Times,serif" font-size="14.00" fill="#000000">AppComponent</text>
</g>
<!-- AppModule -->
<g id="node6" class="node">
<title>AppModule</title>
<polygon fill="#8dd3c7" stroke="#000000" points="460.6571,-252 457.6571,-256 436.6571,-256 433.6571,-252 377.3429,-252 377.3429,-216 460.6571,-216 460.6571,-252"/>
<text text-anchor="middle" x="419" y="-229.8" font-family="Times,serif" font-size="14.00" fill="#000000">AppModule</text>
</g>
<!-- AppComponent&#45;&gt;AppModule -->
<g id="edge1" class="edge">
<title>AppComponent&#45;&gt;AppModule</title>
<path fill="none" stroke="#000000" d="M729,-187.2843C729,-208.3211 729,-240 729,-240 729,-240 470.808,-240 470.808,-240"/>
<polygon fill="#000000" stroke="#000000" points="470.808,-236.5001 460.808,-240 470.8079,-243.5001 470.808,-236.5001"/>
</g>
<!-- NavFooterComponent -->
<g id="node2" class="node">
<title>NavFooterComponent</title>
<polygon fill="#ffffb3" stroke="#000000" points="658.7021,-187 517.2979,-187 517.2979,-151 658.7021,-151 658.7021,-187"/>
<text text-anchor="middle" x="588" y="-164.8" font-family="Times,serif" font-size="14.00" fill="#000000">NavFooterComponent</text>
</g>
<!-- NavFooterComponent&#45;&gt;AppModule -->
<g id="edge3" class="edge">
<title>NavFooterComponent&#45;&gt;AppModule</title>
<path fill="none" stroke="#000000" d="M588,-187.0225C588,-204.3734 588,-228 588,-228 588,-228 470.7753,-228 470.7753,-228"/>
<polygon fill="#000000" stroke="#000000" points="470.7753,-224.5001 460.7753,-228 470.7753,-231.5001 470.7753,-224.5001"/>
</g>
<!-- DynamicFieldComponent -->
<g id="node3" class="node">
<title>DynamicFieldComponent</title>
<polygon fill="#ffffb3" stroke="#000000" points="499.9284,-187 338.0716,-187 338.0716,-151 499.9284,-151 499.9284,-187"/>
<text text-anchor="middle" x="419" y="-164.8" font-family="Times,serif" font-size="14.00" fill="#000000">DynamicFieldComponent</text>
</g>
<!-- DynamicFieldComponent&#45;&gt;AppModule -->
<g id="edge4" class="edge">
<title>DynamicFieldComponent&#45;&gt;AppModule</title>
<path fill="none" stroke="#000000" d="M419,-187.1061C419,-187.1061 419,-205.991 419,-205.991"/>
<polygon fill="#000000" stroke="#000000" points="415.5001,-205.9909 419,-215.991 422.5001,-205.991 415.5001,-205.9909"/>
</g>
<!-- StepperFormComponent -->
<g id="node4" class="node">
<title>StepperFormComponent</title>
<polygon fill="#ffffb3" stroke="#000000" points="320.4298,-187 165.5702,-187 165.5702,-151 320.4298,-151 320.4298,-187"/>
<text text-anchor="middle" x="243" y="-164.8" font-family="Times,serif" font-size="14.00" fill="#000000">StepperFormComponent</text>
</g>
<!-- StepperFormComponent&#45;&gt;AppModule -->
<g id="edge5" class="edge">
<title>StepperFormComponent&#45;&gt;AppModule</title>
<path fill="none" stroke="#000000" d="M243,-187.0225C243,-204.3734 243,-228 243,-228 243,-228 367.2905,-228 367.2905,-228"/>
<polygon fill="#000000" stroke="#000000" points="367.2905,-231.5001 377.2905,-228 367.2904,-224.5001 367.2905,-231.5001"/>
</g>
<!-- KeyboardDirective -->
<g id="node5" class="node">
<title>KeyboardDirective</title>
<polygon fill="#ffffb3" stroke="#000000" points="147.7795,-187 24.2205,-187 24.2205,-151 147.7795,-151 147.7795,-187"/>
<text text-anchor="middle" x="86" y="-164.8" font-family="Times,serif" font-size="14.00" fill="#000000">KeyboardDirective</text>
</g>
<!-- KeyboardDirective&#45;&gt;AppModule -->
<g id="edge6" class="edge">
<title>KeyboardDirective&#45;&gt;AppModule</title>
<path fill="none" stroke="#000000" d="M86,-187.2843C86,-208.3211 86,-240 86,-240 86,-240 367.1625,-240 367.1625,-240"/>
<polygon fill="#000000" stroke="#000000" points="367.1625,-243.5001 377.1625,-240 367.1625,-236.5001 367.1625,-243.5001"/>
</g>
<!-- AppComponent  -->
<g id="node8" class="node">
<title>AppComponent </title>
<polygon fill="#80b1d3" stroke="#000000" points="473.439,-317 364.561,-317 364.561,-281 473.439,-281 473.439,-317"/>
<text text-anchor="middle" x="419" y="-294.8" font-family="Times,serif" font-size="14.00" fill="#000000">AppComponent </text>
</g>
<!-- AppModule&#45;&gt;AppComponent  -->
<g id="edge7" class="edge">
<title>AppModule&#45;&gt;AppComponent </title>
<path fill="none" stroke="#000000" stroke-dasharray="1,5" d="M419,-252.1061C419,-252.1061 419,-270.991 419,-270.991"/>
<polygon fill="#000000" stroke="#000000" points="415.5001,-270.9909 419,-280.991 422.5001,-270.991 415.5001,-270.9909"/>
</g>
<!-- FieldService -->
<g id="node7" class="node">
<title>FieldService</title>
<ellipse fill="#fdb462" stroke="#000000" cx="722" cy="-104" rx="59.6858" ry="18"/>
<text text-anchor="middle" x="722" y="-99.8" font-family="Times,serif" font-size="14.00" fill="#000000">FieldService</text>
</g>
<!-- FieldService&#45;&gt;AppComponent -->
<g id="edge2" class="edge">
<title>FieldService&#45;&gt;AppComponent</title>
<path fill="none" stroke="#000000" d="M729,-122.1061C729,-122.1061 729,-140.991 729,-140.991"/>
<polygon fill="#000000" stroke="#000000" points="725.5001,-140.9909 729,-150.991 732.5001,-140.991 725.5001,-140.9909"/>
</g>
</g>
</svg>
